#!OML:ASF F:\VICON\USERDATA\INSTALL\Justin_Nancy\Justin_Nancy.ASF
:FULLY-SPECIFIED
:DEGREES
49
root -10.45 16.423 -12.0279 -5.05545 3.80825 -0.637372
lowerback 13.3189 1.15456 -4.96533
upperback 2.19051 0.931192 1.79543
thorax -5.26456 0.56265 4.54629
lowerneck -19.184 -4.27888 -9.74498
upperneck 16.513 -4.71384 7.77792
head 8.73878 -2.02736 3.6315
rclavicle -1.88845e-015 -2.01766e-014
rhumerus -46.7427 18.7563 -99.3196
rradius 119.818
rwrist -6.2195
rhand -11.1468 23.7665
rfingers 7.12502
rthumb 14.8791 -5.67924
lclavicle -1.88845e-015 -2.01766e-014
lhumerus -49.4005 -2.95946 76.9494
lradius 108.925
lwrist 21.9705
lhand -13.1861 10.8566
lfingers 7.12502
lthumb 12.9138 40.437
rfemur -27.0087 -9.29318 13.6409
rtibia 79.0035
rfoot -11.8256 -7.32958
rtoes 1.37023
lfemur -24.0585 7.21124 -28.406
ltibia 62.8515
lfoot -13.9867 -4.15246
ltoes -8.10155
50
root -10.441 16.4414 -11.7117 -5.1115 4.64904 -0.607546
lowerback 13.2918 0.900367 -5.01557
upperback 2.39144 0.593772 1.82614
thorax -4.99778 0.385722 4.6674
lowerneck -19.1791 -4.02801 -9.55237
upperneck 16.6402 -4.34873 7.39966
head 8.73226 -1.88372 3.52023
rclavicle 1.94312e-014 -2.5842e-015
rhumerus -46.9527 19.3011 -99.0512
rradius 120.808
rwrist -7.1064
rhand -10.8577 24.5687
rfingers 7.12502
rthumb 15.1576 -4.85615
lclavicle 1.94312e-014 -2.5842e-015
lhumerus -48.9835 -4.21241 77.5567
lradius 109.759
lwrist 21.8241
lhand -13.5289 10.5472
lfingers 7.12502
lthumb 12.5833 40.1483
rfemur -28.4043 -8.95701 13.6375
rtibia 76.5394
rfoot -12.3359 -7.75412
rtoes 0.497546
lfemur -23.7718 6.69427 -28.0057
ltibia 64.1829
lfoot -10.7664 -5.53364
ltoes -2.51646
51
root -10.4344 16.4698 -11.3937 -5.18764 5.41609 -0.551009
lowerback 13.3969 0.694359 -5.20794
upperback 2.46424 0.29709 1.94627
thorax -4.94425 0.240328 4.95807
lowerneck -18.829 -3.80514 -9.4412
upperneck 16.6299 -3.97682 6.79182
head 8.61707 -1.77191 3.34321
rclavicle 4.96962e-015 1.35174e-014
rhumerus -47.4755 19.7696 -98.7264
rradius 121.782
rwrist -7.46497
rhand -10.5245 25.3925
rfingers 7.12502
rthumb 15.4785 -4.00787
lclavicle 4.96962e-015 1.35174e-014
lhumerus -48.7633 -5.25265 78.1228
lradius 110.635
lwrist 21.5096
lhand -12.9972 10.2597
lfingers 7.12502
lthumb 13.0959 39.8285
rfemur -29.4753 -8.2847 13.5406
rtibia 73.6439
rfoot -12.8799 -8.27388
rtoes -2.66301
lfemur -23.4007 6.29496 -27.5202
ltibia 65.2082
lfoot -9.83536 -7.32578
ltoes -9.31695
52
root -10.4261 16.5049 -11.0749 -5.32478 6.18763 -0.24292
lowerback 13.5877 0.54859 -5.62692
upperback 2.55954 0.0386305 1.97927
thorax -4.91484 0.116476 5.28006
lowerneck -18.3912 -3.62221 -9.52582
upperneck 16.6511 -3.67818 6.47923
head 8.51661 -1.677 3.29136
rclavicle 6.16232e-015 2.62396e-014
rhumerus -48.1046 20.1595 -98.4287
rradius 122.912
rwrist -7.64181
rhand -10.2189 25.5026
rfingers 7.12502
rthumb 15.7728 -3.87475
lclavicle 6.16232e-015 2.62396e-014
lhumerus -48.3782 -6.12726 78.599
lradius 111.285
lwrist 20.8937
lhand -12.0732 10.0086
lfingers 7.12502
lthumb 13.9865 39.5181
rfemur -30.2247 -7.35885 12.9832
rtibia 70.3991
rfoot -13.2041 -8.79716
rtoes -4.87575
lfemur -22.7179 5.86292 -27.2203
ltibia 65.8871
lfoot -8.38243 -9.56503
ltoes -12.527
53
root -10.4134 16.5412 -10.7522 -5.3956 6.85521 -0.0859297
lowerback 13.8535 0.378259 -5.77035
upperback 2.46981 -0.223612 1.97304
thorax -5.12046 -0.000971968 5.40697
lowerneck -18.0572 -3.30415 -9.47952
upperneck 17.0607 -3.24916 6.2399
head 8.55407 -1.50588 3.26424
rclavicle -2.98177e-016 -8.34896e-015
rhumerus -49.079 20.6239 -98.4108
rradius 123.975
rwrist -7.32514
rhand -10.475 25.334
rfingers 7.12502
rthumb 15.5262 -4.06267
lclavicle -2.98177e-016 -8.34896e-015
lhumerus -48.3037 -7.11164 78.9169
lradius 111.671
lwrist 20.0002
lhand -11.3387 9.07423
lfingers 7.12502
lthumb 14.6942 38.5335
rfemur -30.8312 -6.22285 12.4282
rtibia 66.8018
rfoot -13.1317 -9.12405
rtoes -4.36315
lfemur -21.9961 5.35269 -26.712
ltibia 66.2564
lfoot -6.53812 -11.9469
ltoes -11.5661
54
root -10.4026 16.5703 -10.4251 -5.44282 7.28286 0.00182515
lowerback 14.0097 0.269194 -5.89684
upperback 2.32751 -0.394048 2.0373
thorax -5.333 -0.0707836 5.58408
lowerneck -17.562 -2.90434 -9.42667
upperneck 17.3546 -2.69102 5.86872
head 8.51234 -1.28845 3.20496
rclavicle 1.9133e-015 1.09332e-014
rhumerus -50.172 21.0195 -98.354
rradius 124.958
rwrist -6.40559
rhand -10.4211 25.4693
rfingers 7.12502
rthumb 15.5781 -3.92335
lclavicle 1.9133e-015 1.09332e-014
lhumerus -48.4353 -7.99884 79.2827
lradius 112.116
lwrist 19.2343
lhand -10.0687 8.55574
lfingers 7.12502
lthumb 15.9175 37.9216
rfemur -31.3046 -4.68249 11.8799
rtibia 62.9389
rfoot -12.0293 -9.49387
rtoes -2.91382
lfemur -21.2084 4.98211 -26.0424
ltibia 66.3065
lfoot -5.1794 -14.4341
ltoes -8.56701
